# xmcd
#
# Track frame offsets: 
#        150
#        20197
#        35295
#        50770
#        64857
#        84535
#        101070
#        117195
#        138625
#        155190
#        171077
#        188482
#
# Disc length: 2768 seconds
#
# Revision: 2
# Processed by: cddbd v1.5.2PL0 Copyright (c) Steve Scherf et al.
# Submitted via: ExactAudioCopyFreeDBPlugin 1.0
#
DISCID=a90ace0c
DTITLE=Jamelia - Thank You
DYEAR=2003
DGENRE=R&B
TTITLE0=Bout Feat. Rah Digga
TTITLE1=Off Da Endz Feat. Asher D
TTITLE2=Taxi
TTITLE3=Thank You
TTITLE4=Dirty Dirty
TTITLE5=B.I.T.C.H
TTITLE6=Superstar
TTITLE7=Life
TTITLE8=Club Hoppin' Feat. Bubba Sparxxx
TTITLE9=Antidote
TTITLE10=Cutie
TTITLE11=Bounce
EXTD=YEAR: 2003
EXTT0=
EXTT1=
EXTT2=
EXTT3=
EXTT4=
EXTT5=
EXTT6=
EXTT7=
EXTT8=
EXTT9=
EXTT10=
EXTT11=
PLAYORDER=
